{
  "accessors": [
    {
      "bufferView": 2,
      "componentType": 5126,
      "count": 3968,
      "max": [
        0.45371145009994507,
        0.35230684280395508,
        0.71344131231307983
      ],
      "min": [
        -0.45371145009994507,
        -0.045094475150108337,
        0.31631821393966675
      ],
      "type": "VEC3"
    },
    {
      "bufferView": 2,
      "byteOffset": 47616,
      "componentType": 5126,
      "count": 3968,
      "max": [
        0.99339503049850464,
        0.99043840169906616,
        0.99810892343521118
      ],
      "min": [
        -0.99339503049850464,
        -0.99043834209442139,
        -0.99810898303985596
      ],
      "type": "VEC3"
    },
    {
      "bufferView": 1,
      "componentType": 5126,
      "count": 3968,
      "max": [
        1.0000002384185791,
        1
      ],
      "min": [
        0,
        0
      ],
      "type": "VEC2"
    },
    {
      "bufferView": 0,
      "componentType": 5125,
      "count": 5760,
      "max": [
        3967
      ],
      "min": [
        0
      ],
      "type": "SCALAR"
    },
    {
      "bufferView": 2,
      "byteOffset": 95232,
      "componentType": 5126,
      "count": 1809,
      "max": [
        0.94524288177490234,
        0.86761921644210815,
        1.3272409439086914
      ],
      "min": [
        -0.94522356986999512,
        -1.7811582088470459,
        -1.0179895162582397
      ],
      "type": "VEC3"
    },
    {
      "bufferView": 2,
      "byteOffset": 116940,
      "componentType": 5126,
      "count": 1809,
      "max": [
        0.99893981218338013,
        0.99998867511749268,
        0.99962913990020752
      ],
      "min": [
        -0.99891442060470581,
        -0.99616247415542603,
        -0.99982726573944092
      ],
      "type": "VEC3"
    },
    {
      "bufferView": 1,
      "byteOffset": 31744,
      "componentType": 5126,
      "count": 1809,
      "max": [
        0.98628658056259155,
        0.98850274085998535
      ],
      "min": [
        0.023610552772879601,
        0.0086722671985626221
      ],
      "type": "VEC2"
    },
    {
      "bufferView": 0,
      "byteOffset": 23040,
      "componentType": 5125,
      "count": 9816,
      "max": [
        1808
      ],
      "min": [
        0
      ],
      "type": "SCALAR"
    }
  ],
  "asset": {
    "extras": {
      "author": "Gostbento (https://sketchfab.com/mbkcesar)",
      "license": "CC-BY-4.0 (http://creativecommons.org/licenses/by/4.0/)",
      "source": "https://sketchfab.com/3d-models/dwarf-head-for-dd-0a6446beb26d4416837b2529a081ce63",
      "title": "Dwarf head for D&D"
    },
    "generator": "Sketchfab-8.22.0",
    "version": "2.0"
  },
  "bufferViews": [
    {
      "buffer": 0,
      "byteLength": 62304,
      "byteOffset": 0,
      "name": "floatBufferViews",
      "target": 34963
    },
    {
      "buffer": 0,
      "byteLength": 46216,
      "byteOffset": 62304,
      "byteStride": 8,
      "name": "floatBufferViews",
      "target": 34962
    },
    {
      "buffer": 0,
      "byteLength": 138648,
      "byteOffset": 108520,
      "byteStride": 12,
      "name": "floatBufferViews",
      "target": 34962
    }
  ],
  "buffers": [
    {
      "byteLength": 247168,
      "uri": "scene.bin"
    }
  ],
  "images": [
    {
      "uri": "textures/material_baseColor.png"
    },
    {
      "uri": "textures/Material_baseColor.png"
    }
  ],
  "materials": [
    {
      "doubleSided": true,
      "emissiveFactor": [
        0,
        0,
        0
      ],
      "name": "material",
      "pbrMetallicRoughness": {
        "baseColorFactor": [
          1,
          1,
          1,
          1
        ],
        "baseColorTexture": {
          "index": 0,
          "texCoord": 0
        },
        "metallicFactor": 0,
        "roughnessFactor": 0.107595
      }
    },
    {
      "doubleSided": true,
      "emissiveFactor": [
        0,
        0,
        0
      ],
      "name": "Material",
      "pbrMetallicRoughness": {
        "baseColorFactor": [
          1,
          1,
          1,
          1
        ],
        "baseColorTexture": {
          "index": 1,
          "texCoord": 0
        },
        "metallicFactor": 0,
        "roughnessFactor": 0.5
      }
    }
  ],
  "meshes": [
    {
      "primitives": [
        {
          "attributes": {
            "NORMAL": 1,
            "POSITION": 0,
            "TEXCOORD_0": 2
          },
          "indices": 3,
          "material": 0,
          "mode": 4
        }
      ]
    },
    {
      "primitives": [
        {
          "attributes": {
            "NORMAL": 5,
            "POSITION": 4,
            "TEXCOORD_0": 6
          },
          "indices": 7,
          "material": 1,
          "mode": 4
        }
      ]
    }
  ],
  "nodes": [
    {
      "children": [
        1
      ],
      "name": "RootNode (gltf orientation matrix)",
      "rotation": [
        -0.70710678118654746,
        -0,
        -0,
        0.70710678118654757
      ]
    },
    {
      "children": [
        2
      ],
      "name": "RootNode (model correction matrix)"
    },
    {
      "children": [
        3
      ],
      "name": "root"
    },
    {
      "children": [
        4,
        6
      ],
      "matrix": [
        1,
        0,
        0,
        0,
        0,
        2.2204460492503131e-16,
        1,
        0,
        0,
        -1,
        2.2204460492503131e-16,
        0,
        0,
        0,
        0,
        1
      ],
      "name": "GLTF_SceneRootNode"
    },
    {
      "children": [
        5
      ],
      "name": "Sphere_0"
    },
    {
      "mesh": 0,
      "name": ""
    },
    {
      "children": [
        7
      ],
      "name": "Plane_1"
    },
    {
      "mesh": 1,
      "name": ""
    }
  ],
  "samplers": [
    {
      "magFilter": 9729,
      "minFilter": 9987,
      "wrapS": 10497,
      "wrapT": 10497
    }
  ],
  "scene": 0,
  "scenes": [
    {
      "name": "OSG_Scene",
      "nodes": [
        0
      ]
    }
  ],
  "textures": [
    {
      "sampler": 0,
      "source": 0
    },
    {
      "sampler": 0,
      "source": 1
    }
  ]
}

