{
  "accessors": [
    {
      "bufferView": 2,
      "componentType": 5126,
      "count": 5747,
      "max": [
        0.59245198965072632,
        0.10047099739313126,
        0.56488001346588135
      ],
      "min": [
        -0.59245198965072632,
        -1,
        -0.56488001346588135
      ],
      "type": "VEC3"
    },
    {
      "bufferView": 2,
      "byteOffset": 68964,
      "componentType": 5126,
      "count": 5747,
      "max": [
        1,
        1,
        1
      ],
      "min": [
        -1,
        -1,
        -1
      ],
      "type": "VEC3"
    },
    {
      "bufferView": 3,
      "componentType": 5126,
      "count": 5747,
      "max": [
        1,
        0.99999958276748657,
        1,
        1
      ],
      "min": [
        -0.99978071451187134,
        -0.99999415874481201,
        -0.99993312358856201,
        -1
      ],
      "type": "VEC4"
    },
    {
      "bufferView": 1,
      "componentType": 5126,
      "count": 5747,
      "max": [
        0.9946410059928894,
        0.99949997663497925
      ],
      "min": [
        0.00050000002374872565,
        0.00050000002374872565
      ],
      "type": "VEC2"
    },
    {
      "bufferView": 0,
      "componentType": 5125,
      "count": 14196,
      "max": [
        5746
      ],
      "min": [
        0
      ],
      "type": "SCALAR"
    },
    {
      "bufferView": 2,
      "byteOffset": 137928,
      "componentType": 5126,
      "count": 9992,
      "max": [
        0.39814901351928711,
        1,
        0.49263501167297363
      ],
      "min": [
        -0.39814901351928711,
        -0.35023599863052368,
        -0.35783699154853821
      ],
      "type": "VEC3"
    },
    {
      "bufferView": 2,
      "byteOffset": 257832,
      "componentType": 5126,
      "count": 9992,
      "max": [
        0.99877125024795532,
        0.99999386072158813,
        0.99999946355819702
      ],
      "min": [
        -0.99877113103866577,
        -0.81257820129394531,
        -0.99998366832733154
      ],
      "type": "VEC3"
    },
    {
      "bufferView": 3,
      "byteOffset": 91952,
      "componentType": 5126,
      "count": 9992,
      "max": [
        1,
        0.9996752142906189,
        1,
        1
      ],
      "min": [
        -1,
        -1,
        -0.99909019470214844,
        -1
      ],
      "type": "VEC4"
    },
    {
      "bufferView": 1,
      "byteOffset": 45976,
      "componentType": 5126,
      "count": 9992,
      "max": [
        0.99949997663497925,
        0.99790698289871216
      ],
      "min": [
        0.00050000002374872565,
        0.00050000002374872565
      ],
      "type": "VEC2"
    },
    {
      "bufferView": 0,
      "byteOffset": 56784,
      "componentType": 5125,
      "count": 55734,
      "max": [
        9991
      ],
      "min": [
        0
      ],
      "type": "SCALAR"
    },
    {
      "bufferView": 2,
      "byteOffset": 377736,
      "componentType": 5126,
      "count": 19250,
      "max": [
        0.51913797855377197,
        0.09591200202703476,
        0.49898999929428101
      ],
      "min": [
        -0.52122199535369873,
        -0.964214026927948,
        -0.49207198619842529
      ],
      "type": "VEC3"
    },
    {
      "bufferView": 2,
      "byteOffset": 608736,
      "componentType": 5126,
      "count": 19250,
      "max": [
        1,
        1,
        0.99999988079071045
      ],
      "min": [
        -1,
        -1,
        -1
      ],
      "type": "VEC3"
    },
    {
      "bufferView": 3,
      "byteOffset": 251824,
      "componentType": 5126,
      "count": 19250,
      "max": [
        0.99999827146530151,
        0.99994361400604248,
        0.99999892711639404,
        1
      ],
      "min": [
        -1,
        -0.99992525577545166,
        -0.99996912479400635,
        -1
      ],
      "type": "VEC4"
    },
    {
      "bufferView": 1,
      "byteOffset": 125912,
      "componentType": 5126,
      "count": 19250,
      "max": [
        0.992156982421875,
        0.99949997663497925
      ],
      "min": [
        0.00050000002374872565,
        0.00050000002374872565
      ],
      "type": "VEC2"
    },
    {
      "bufferView": 0,
      "byteOffset": 279720,
      "componentType": 5125,
      "count": 54762,
      "max": [
        19249
      ],
      "min": [
        0
      ],
      "type": "SCALAR"
    }
  ],
  "asset": {
    "extras": {
      "author": "sharai.eu (https://sketchfab.com/sharai.eu)",
      "license": "CC-BY-4.0 (http://creativecommons.org/licenses/by/4.0/)",
      "source": "https://sketchfab.com/3d-models/6-chair-skf-29c9e15d9bfc4316b89f18fafeed34c9",
      "title": "6 chair skf"
    },
    "generator": "Sketchfab-8.22.0",
    "version": "2.0"
  },
  "bufferViews": [
    {
      "buffer": 0,
      "byteLength": 498768,
      "byteOffset": 0,
      "name": "floatBufferViews",
      "target": 34963
    },
    {
      "buffer": 0,
      "byteLength": 279912,
      "byteOffset": 498768,
      "byteStride": 8,
      "name": "floatBufferViews",
      "target": 34962
    },
    {
      "buffer": 0,
      "byteLength": 839736,
      "byteOffset": 778680,
      "byteStride": 12,
      "name": "floatBufferViews",
      "target": 34962
    },
    {
      "buffer": 0,
      "byteLength": 559824,
      "byteOffset": 1618416,
      "byteStride": 16,
      "name": "floatBufferViews",
      "target": 34962
    }
  ],
  "buffers": [
    {
      "byteLength": 2178240,
      "uri": "scene.bin"
    }
  ],
  "images": [
    {
      "uri": "textures/3_metal_baseColor.jpeg"
    },
    {
      "uri": "textures/3_metal_metallicRoughness.png"
    },
    {
      "uri": "textures/3_metal_normal.png"
    },
    {
      "uri": "textures/1_sedine_baseColor.jpeg"
    },
    {
      "uri": "textures/1_sedine_metallicRoughness.png"
    },
    {
      "uri": "textures/1_sedine_normal.png"
    },
    {
      "uri": "textures/2_plastik_baseColor.jpeg"
    },
    {
      "uri": "textures/2_plastik_metallicRoughness.png"
    },
    {
      "uri": "textures/2_plastik_normal.png"
    }
  ],
  "materials": [
    {
      "doubleSided": true,
      "name": "3_metal",
      "normalTexture": {
        "index": 2,
        "scale": 1,
        "texCoord": 0
      },
      "occlusionTexture": {
        "index": 1,
        "strength": 1,
        "texCoord": 0
      },
      "pbrMetallicRoughness": {
        "baseColorFactor": [
          1,
          1,
          1,
          1
        ],
        "baseColorTexture": {
          "index": 0,
          "texCoord": 0
        },
        "metallicFactor": 1,
        "metallicRoughnessTexture": {
          "index": 1,
          "texCoord": 0
        },
        "roughnessFactor": 1
      }
    },
    {
      "doubleSided": true,
      "name": "1_sedine",
      "normalTexture": {
        "index": 5,
        "scale": 1,
        "texCoord": 0
      },
      "occlusionTexture": {
        "index": 4,
        "strength": 1,
        "texCoord": 0
      },
      "pbrMetallicRoughness": {
        "baseColorFactor": [
          1,
          1,
          1,
          1
        ],
        "baseColorTexture": {
          "index": 3,
          "texCoord": 0
        },
        "metallicFactor": 1,
        "metallicRoughnessTexture": {
          "index": 4,
          "texCoord": 0
        },
        "roughnessFactor": 1
      }
    },
    {
      "doubleSided": true,
      "name": "2_plastik",
      "normalTexture": {
        "index": 8,
        "scale": 1,
        "texCoord": 0
      },
      "occlusionTexture": {
        "index": 7,
        "strength": 1,
        "texCoord": 0
      },
      "pbrMetallicRoughness": {
        "baseColorFactor": [
          1,
          1,
          1,
          1
        ],
        "baseColorTexture": {
          "index": 6,
          "texCoord": 0
        },
        "metallicFactor": 1,
        "metallicRoughnessTexture": {
          "index": 7,
          "texCoord": 0
        },
        "roughnessFactor": 1
      }
    }
  ],
  "meshes": [
    {
      "name": "defaultMaterial",
      "primitives": [
        {
          "attributes": {
            "NORMAL": 1,
            "POSITION": 0,
            "TANGENT": 2,
            "TEXCOORD_0": 3
          },
          "indices": 4,
          "material": 2,
          "mode": 4
        }
      ]
    },
    {
      "name": "defaultMaterial",
      "primitives": [
        {
          "attributes": {
            "NORMAL": 6,
            "POSITION": 5,
            "TANGENT": 7,
            "TEXCOORD_0": 8
          },
          "indices": 9,
          "material": 1,
          "mode": 4
        }
      ]
    },
    {
      "name": "defaultMaterial",
      "primitives": [
        {
          "attributes": {
            "NORMAL": 11,
            "POSITION": 10,
            "TANGENT": 12,
            "TEXCOORD_0": 13
          },
          "indices": 14,
          "material": 0,
          "mode": 4
        }
      ]
    }
  ],
  "nodes": [
    {
      "children": [
        1
      ],
      "name": "RootNode (gltf orientation matrix)",
      "rotation": [
        -0.70710678118654746,
        -0,
        -0,
        0.70710678118654757
      ]
    },
    {
      "children": [
        2
      ],
      "matrix": [
        0.63694268465042114,
        0,
        0,
        0,
        0,
        0.63694268465042114,
        0,
        0,
        0,
        0,
        0.63694268465042114,
        0,
        0,
        0,
        0,
        1
      ],
      "name": "RootNode (model correction matrix)"
    },
    {
      "children": [
        3,
        5,
        7
      ],
      "matrix": [
        1,
        0,
        0,
        0,
        0,
        -4.3711390063094768e-08,
        0.999999999999999,
        0,
        0,
        -0.999999999999999,
        -4.3711390063094768e-08,
        0,
        0,
        0,
        0,
        1
      ],
      "name": "Collada visual scene group"
    },
    {
      "children": [
        4
      ],
      "name": "Object017"
    },
    {
      "mesh": 0,
      "name": "defaultMaterial"
    },
    {
      "children": [
        6
      ],
      "name": "4"
    },
    {
      "mesh": 1,
      "name": "defaultMaterial"
    },
    {
      "children": [
        8
      ],
      "name": "skechup2_1"
    },
    {
      "mesh": 2,
      "name": "defaultMaterial"
    }
  ],
  "samplers": [
    {
      "magFilter": 9729,
      "minFilter": 9987,
      "wrapS": 10497,
      "wrapT": 10497
    }
  ],
  "scene": 0,
  "scenes": [
    {
      "name": "OSG_Scene",
      "nodes": [
        0
      ]
    }
  ],
  "textures": [
    {
      "sampler": 0,
      "source": 0
    },
    {
      "sampler": 0,
      "source": 1
    },
    {
      "sampler": 0,
      "source": 2
    },
    {
      "sampler": 0,
      "source": 3
    },
    {
      "sampler": 0,
      "source": 4
    },
    {
      "sampler": 0,
      "source": 5
    },
    {
      "sampler": 0,
      "source": 6
    },
    {
      "sampler": 0,
      "source": 7
    },
    {
      "sampler": 0,
      "source": 8
    }
  ]
}

